<svg width="100%" viewBox="0 0 130 139" fill="none" xmlns="http://www.w3.org/2000/svg">
<path d="M76.4824 2.00002C76.0824 5.70002 75.7824 8.55002 75.5824 10.55C75.3824 12.55 75.2824 14.8 75.2824 17.3C75.2824 18.7 75.2824 20.8 75.2824 23.6C75.2824 26.4 75.2824 29.3 75.2824 32.3C75.2824 35.3 75.2824 37.8 75.2824 39.8H49.7824C49.7824 37.5 49.7824 34.85 49.7824 31.85C49.7824 28.85 49.7824 26.05 49.7824 23.45C49.7824 20.75 49.7824 18.7 49.7824 17.3C49.7824 14.8 49.6824 12.55 49.4824 10.55C49.3824 8.55002 49.0324 5.70002 48.4324 2.00002H76.4824ZM126.582 35.15C125.882 37.05 125.232 39.4 124.632 42.2C124.032 45 123.582 47.15 123.282 48.65C122.582 52.55 121.782 56.3 120.882 59.9C119.982 63.4 118.982 66.8 117.882 70.1C116.782 73.4 115.532 76.7 114.132 80C112.832 83.2 111.332 86.45 109.632 89.75C105.532 97.55 100.282 104.55 93.8824 110.75C87.4824 116.95 80.3324 122.15 72.4324 126.35C64.5324 130.65 56.1824 133.95 47.3824 136.25L28.4824 114.35C32.3824 113.65 36.5324 112.7 40.9324 111.5C45.4324 110.2 49.4324 108.85 52.9324 107.45C56.5324 105.95 60.1324 104.1 63.7324 101.9C67.4324 99.7 70.9324 97.15 74.2324 94.25C77.5324 91.35 80.5324 88.1 83.2324 84.5C85.6324 81.1 87.6324 77.55 89.2324 73.85C90.9324 70.05 92.2824 66.05 93.2824 61.85C94.3824 57.65 95.2824 53.3 95.9824 48.8H26.8324C26.8324 50 26.8324 51.45 26.8324 53.15C26.8324 54.75 26.8324 56.5 26.8324 58.4C26.8324 60.3 26.8324 62.1 26.8324 63.8C26.8324 65.4 26.8324 66.8 26.8324 68C26.8324 69.9 26.8824 72 26.9824 74.3C27.0824 76.6 27.2324 78.6 27.4324 80.3H2.38242C2.58242 78.1 2.73242 75.75 2.83242 73.25C3.03242 70.75 3.13242 68.35 3.13242 66.05C3.13242 64.85 3.13242 63.1 3.13242 60.8C3.13242 58.5 3.13242 56.05 3.13242 53.45C3.13242 50.85 3.13242 48.4 3.13242 46.1C3.13242 43.7 3.13242 41.75 3.13242 40.25C3.13242 38.55 3.08242 36.35 2.98242 33.65C2.88242 30.85 2.68242 28.5 2.38242 26.6C5.18242 26.9 7.78242 27.1 10.1824 27.2C12.6824 27.3 15.4324 27.35 18.4324 27.35H97.1824C100.482 27.35 103.182 27.2 105.282 26.9C107.482 26.5 109.332 26.05 110.832 25.55L126.582 35.15Z" fill="currentColor" fill-rule="evenodd"/>
</svg>
