<svg width="100%" viewBox="0 0 137 127" fill="none" xmlns="http://www.w3.org/2000/svg">
<path d="M122.209 13.1887C121.509 14.1887 120.509 15.7887 119.209 17.9887C117.909 20.1887 116.859 22.2387 116.059 24.1387C113.959 28.7387 111.359 33.9387 108.259 39.7387C105.259 45.4387 101.809 51.2387 97.9088 57.1387C94.1088 63.0387 90.0088 68.5887 85.6088 73.7887C80.0088 80.2887 73.7588 86.6887 66.8588 92.9887C60.0588 99.1887 52.8588 104.939 45.2588 110.239C37.7588 115.439 30.1588 119.889 22.4588 123.589L3.55879 103.939C11.6588 100.939 19.5588 97.0887 27.2588 92.3887C34.9588 87.6887 42.0588 82.6387 48.5588 77.2387C55.0588 71.8387 60.5088 66.6887 64.9088 61.7887C68.2088 58.0887 71.2088 54.2387 73.9088 50.2387C76.7088 46.2387 79.1588 42.3387 81.2588 38.5387C83.3588 34.6387 84.9088 31.0887 85.9088 27.8887C84.8088 27.8887 83.0588 27.8887 80.6588 27.8887C78.2588 27.8887 75.5088 27.8887 72.4088 27.8887C69.3088 27.8887 66.0588 27.8887 62.6588 27.8887C59.3588 27.8887 56.1588 27.8887 53.0588 27.8887C49.9588 27.8887 47.1588 27.8887 44.6588 27.8887C42.2588 27.8887 40.4588 27.8887 39.2588 27.8887C37.0588 27.8887 34.7088 27.9887 32.2088 28.1887C29.8088 28.2887 27.5088 28.4387 25.3088 28.6387C23.2088 28.8387 21.4588 28.9887 20.0588 29.0887V3.28873C21.8588 3.48873 23.9588 3.68873 26.3588 3.88872C28.8588 4.08873 31.2588 4.23873 33.5588 4.33873C35.9588 4.43873 37.8588 4.48872 39.2588 4.48872C40.7588 4.48872 42.8588 4.48872 45.5588 4.48872C48.2588 4.48872 51.2588 4.48872 54.5588 4.48872C57.9588 4.48872 61.4088 4.48872 64.9088 4.48872C68.5088 4.48872 71.9088 4.48872 75.1088 4.48872C78.4088 4.48872 81.3088 4.48872 83.8088 4.48872C86.3088 4.48872 88.1588 4.48872 89.3588 4.48872C93.1588 4.48872 96.6588 4.28872 99.8588 3.88872C103.159 3.38872 105.659 2.83872 107.359 2.23873L122.209 13.1887ZM87.5588 58.7887C91.3588 61.7887 95.4588 65.3387 99.8588 69.4387C104.259 73.5387 108.609 77.8387 112.909 82.3387C117.309 86.7387 121.359 90.9887 125.059 95.0887C128.759 99.1887 131.809 102.689 134.209 105.589L113.359 123.739C109.659 118.339 105.459 112.939 100.759 107.539C96.1588 102.039 91.2588 96.5887 86.0588 91.1887C80.9588 85.7887 75.7088 80.6387 70.3088 75.7387L87.5588 58.7887Z" fill="currentColor" fill-rule="evenodd"/>
</svg>
