<?xml version="1.0" encoding="UTF-8"?>
<svg width="100%" viewBox="0 0 146 118" fill="none" xmlns="http://www.w3.org/2000/svg">
<mask id="kanji-hachi-mask" maskUnits="userSpaceOnUse" x="-0.0810547" y="-0.185303" width="100%" fill="black">
<rect fill="white" x="-0.0810547" y="-0.185303" width="100%"/>
<path d="M26.7189 62.2647C28.4189 57.8647 30.0189 53.3647 31.5189 48.7647C33.0189 44.0647 34.3689 39.2647 35.5689 34.3647C36.7689 29.4647 37.8189 24.5147 38.7189 19.5147C39.6189 14.5147 40.2689 9.51469 40.6689 4.51469L67.2189 10.0647C66.8189 11.6647 66.3189 13.6147 65.7189 15.9147C65.1189 18.1147 64.5689 20.2647 64.0689 22.3647C63.6689 24.4647 63.3689 26.1147 63.169 27.3147C62.6689 30.1147 61.9689 33.3647 61.069 37.0647C60.169 40.7647 59.1189 44.6147 57.9189 48.6147C56.8189 52.6147 55.6689 56.6147 54.4689 60.6147C53.2689 64.5147 52.0689 68.1147 50.8689 71.4147C49.1689 76.4147 47.0689 81.6147 44.5689 87.0147C42.0689 92.4147 39.4189 97.5647 36.6189 102.465C33.9189 107.365 31.3189 111.615 28.8189 115.215L3.16895 104.415C7.86895 98.3147 12.3189 91.4647 16.5189 83.8647C20.7189 76.2647 24.1189 69.0647 26.7189 62.2647ZM100.819 60.6147C99.419 56.6147 97.769 52.3147 95.869 47.7147C94.069 43.1147 92.169 38.5147 90.1689 33.9147C88.1689 29.2147 86.2189 24.8147 84.319 20.7147C82.419 16.6147 80.6689 13.1147 79.0689 10.2147L103.369 2.41469C104.969 5.41469 106.769 9.06469 108.769 13.3647C110.869 17.5647 112.919 22.0647 114.919 26.8647C117.019 31.5647 119.019 36.1647 120.919 40.6647C122.819 45.1647 124.419 49.1147 125.719 52.5147C126.919 55.7147 128.269 59.5647 129.769 64.0647C131.369 68.4647 132.969 73.1147 134.569 78.0147C136.169 82.9147 137.669 87.7647 139.069 92.5647C140.569 97.2647 141.819 101.565 142.819 105.465L115.669 114.315C114.269 107.915 112.769 101.665 111.169 95.5647C109.669 89.3647 108.069 83.3647 106.369 77.5647C104.669 71.6647 102.819 66.0147 100.819 60.6147Z"/>
</mask>
<path d="M26.7189 62.2647L24.8533 61.5439L24.8508 61.5504L26.7189 62.2647ZM31.5189 48.7647L33.4204 49.3848L33.4243 49.3728L31.5189 48.7647ZM35.5689 34.3647L37.5115 34.8404V34.8404L35.5689 34.3647ZM40.6689 4.51469L41.0782 2.55701L38.8563 2.09255L38.6753 4.35519L40.6689 4.51469ZM67.2189 10.0647L69.1592 10.5498L69.6636 8.53248L67.6282 8.107L67.2189 10.0647ZM65.7189 15.9147L67.6485 16.4409L67.6514 16.4303L67.6542 16.4195L65.7189 15.9147ZM64.0689 22.3647L62.1233 21.9015L62.1128 21.9457L62.1043 21.9905L64.0689 22.3647ZM63.169 27.3147L65.1378 27.6663L65.1398 27.6549L65.1417 27.6435L63.169 27.3147ZM61.069 37.0647L63.0123 37.5374V37.5374L61.069 37.0647ZM57.9189 48.6147L56.0033 48.04L55.9967 48.0621L55.9905 48.0844L57.9189 48.6147ZM54.4689 60.6147L56.3806 61.2029L56.3846 61.1894L54.4689 60.6147ZM50.8689 71.4147L48.9894 70.7312L48.9822 70.751L48.9754 70.7709L50.8689 71.4147ZM44.5689 87.0147L46.3839 87.8549V87.8549L44.5689 87.0147ZM36.6189 102.465L34.8825 101.472L34.8748 101.486L34.8673 101.499L36.6189 102.465ZM28.8189 115.215L28.0428 117.058L29.537 117.687L30.4617 116.355L28.8189 115.215ZM3.16895 104.415L1.58466 103.194L0.000146389 105.251L2.39283 106.258L3.16895 104.415ZM16.5189 83.8647L18.2694 84.8321H18.2694L16.5189 83.8647ZM100.819 60.6147L98.9312 61.2754L98.9372 61.2924L98.9435 61.3093L100.819 60.6147ZM95.869 47.7147L94.0065 48.4435L94.0133 48.4609L94.0204 48.4782L95.869 47.7147ZM90.1689 33.9147L88.3286 34.6978L88.3317 34.705L88.3348 34.7122L90.1689 33.9147ZM79.0689 10.2147L78.4577 8.31039L76.1439 9.05311L77.3178 11.1809L79.0689 10.2147ZM103.369 2.41469L105.134 1.47351L104.348 -7.62939e-06L102.758 0.510384L103.369 2.41469ZM108.769 13.3647L106.956 14.2082L106.967 14.2338L106.98 14.2591L108.769 13.3647ZM114.919 26.8647L113.073 27.6339L113.083 27.6574L113.093 27.6806L114.919 26.8647ZM120.919 40.6647L122.761 39.8867V39.8867L120.919 40.6647ZM125.719 52.5147L127.592 51.8124L127.587 51.8004L125.719 52.5147ZM129.769 64.0647L127.872 64.6972L127.88 64.7228L127.889 64.7482L129.769 64.0647ZM134.569 78.0147L136.47 77.3939V77.3939L134.569 78.0147ZM139.069 92.5647L137.149 93.1247L137.156 93.1488L137.164 93.1728L139.069 92.5647ZM142.819 105.465L143.439 107.366L145.222 106.785L144.756 104.968L142.819 105.465ZM115.669 114.315L113.715 114.742L114.187 116.901L116.289 116.216L115.669 114.315ZM111.169 95.5647L109.225 96.035L109.23 96.0536L109.234 96.0721L111.169 95.5647ZM106.369 77.5647L104.447 78.1184L104.45 78.1272L106.369 77.5647ZM26.7189 62.2647L28.5845 62.9855C30.2977 58.5514 31.9096 54.0178 33.4204 49.3847L31.5189 48.7647L29.6175 48.1447C28.1283 52.7116 26.5402 57.178 24.8533 61.5439L26.7189 62.2647ZM31.5189 48.7647L33.4243 49.3728C34.9385 44.6281 36.3009 39.784 37.5115 34.8404L35.5689 34.3647L33.6264 33.889C32.437 38.7454 31.0994 43.5013 29.6136 48.1566L31.5189 48.7647ZM35.5689 34.3647L37.5115 34.8404C38.7215 29.8999 39.78 24.9094 40.6873 19.869L38.7189 19.5147L36.7506 19.1604C35.8579 24.1199 34.8164 29.0294 33.6264 33.889L35.5689 34.3647ZM38.7189 19.5147L40.6873 19.869C41.5988 14.8053 42.2573 9.74033 42.6626 4.67418L40.6689 4.51469L38.6753 4.35519C38.2806 9.28905 37.6391 14.224 36.7506 19.1604L38.7189 19.5147ZM40.6689 4.51469L40.2597 6.47237L66.8097 12.0224L67.2189 10.0647L67.6282 8.107L41.0782 2.55701L40.6689 4.51469ZM67.2189 10.0647L65.2787 9.57962C64.8809 11.1709 64.3827 13.1138 63.7837 15.4099L65.7189 15.9147L67.6542 16.4195C68.2552 14.1155 68.757 12.1585 69.1592 10.5498L67.2189 10.0647ZM65.7189 15.9147L63.7894 15.3885C63.184 17.6082 62.6286 19.7792 62.1233 21.9015L64.0689 22.3647L66.0146 22.8279C66.5093 20.7502 67.0539 18.6212 67.6485 16.4409L65.7189 15.9147ZM64.0689 22.3647L62.1043 21.9905C61.7032 24.0961 61.3999 25.7635 61.1962 26.9859L63.169 27.3147L65.1417 27.6435C65.338 26.4659 65.6347 24.8332 66.0336 22.7389L64.0689 22.3647ZM63.169 27.3147L61.2001 26.9631C60.7093 29.7116 60.0189 32.9196 59.1256 36.592L61.069 37.0647L63.0123 37.5374C63.919 33.8098 64.6286 30.5178 65.1378 27.6663L63.169 27.3147ZM61.069 37.0647L59.1256 36.592C58.2347 40.2547 57.1941 44.0706 56.0033 48.04L57.9189 48.6147L59.8346 49.1894C61.0438 45.1588 62.1032 41.2747 63.0123 37.5374L61.069 37.0647ZM57.9189 48.6147L55.9905 48.0844C54.8946 52.0694 53.7489 56.0546 52.5533 60.04L54.4689 60.6147L56.3846 61.1894C57.589 57.1747 58.7433 53.1599 59.8474 49.145L57.9189 48.6147ZM54.4689 60.6147L52.5574 60.0265C51.3657 63.8995 50.1763 67.4673 48.9894 70.7312L50.8689 71.4147L52.7485 72.0982C53.9616 68.7621 55.1722 65.1299 56.3805 61.2029L54.4689 60.6147ZM50.8689 71.4147L48.9754 70.7709C47.3008 75.6963 45.228 80.8306 42.754 86.1745L44.5689 87.0147L46.3839 87.8549C48.9099 82.3988 51.0371 77.1331 52.7625 72.0585L50.8689 71.4147ZM44.5689 87.0147L42.754 86.1745C40.2767 91.5255 37.6527 96.6245 34.8825 101.472L36.6189 102.465L38.3554 103.457C41.1852 98.5049 43.8612 93.3039 46.3839 87.8549L44.5689 87.0147ZM36.6189 102.465L34.8673 101.499C32.1919 106.355 29.6279 110.543 27.1762 114.074L28.8189 115.215L30.4617 116.355C33.01 112.686 35.6459 108.375 38.3706 103.43L36.6189 102.465ZM28.8189 115.215L29.5951 113.371L3.94506 102.571L3.16895 104.415L2.39283 106.258L28.0428 117.058L28.8189 115.215ZM3.16895 104.415L4.75323 105.635C9.52217 99.4459 14.0266 92.5096 18.2694 84.8321L16.5189 83.8647L14.7685 82.8973C10.6113 90.4198 6.21572 97.1835 1.58466 103.194L3.16895 104.415ZM16.5189 83.8647L18.2694 84.8321C22.5062 77.1656 25.9482 69.8806 28.587 62.979L26.7189 62.2647L24.8508 61.5504C22.2897 68.2487 18.9317 75.3638 14.7685 82.8973L16.5189 83.8647ZM100.819 60.6147L102.707 59.954C101.293 55.914 99.6291 51.5794 97.7175 46.9512L95.869 47.7147L94.0204 48.4782C95.9088 53.05 97.5452 57.3154 98.9312 61.2754L100.819 60.6147ZM95.869 47.7147L97.7314 46.9859C95.9223 42.3625 94.0128 37.7396 92.0031 33.1172L90.1689 33.9147L88.3348 34.7122C90.3251 39.2898 92.2156 43.8669 94.0065 48.4435L95.869 47.7147ZM90.1689 33.9147L92.0093 33.1316C90.002 28.4146 88.0435 23.9952 86.1336 19.8738L84.3189 20.7147L82.5043 21.5556C84.3944 25.6342 86.3359 30.0148 88.3286 34.6978L90.1689 33.9147ZM84.3189 20.7147L86.1336 19.8738C84.2204 15.7454 82.4492 12.2012 80.8201 9.24854L79.0689 10.2147L77.3178 11.1809C78.8887 14.0282 80.6175 17.484 82.5043 21.5556L84.3189 20.7147ZM79.0689 10.2147L79.6802 12.119L103.98 4.31899L103.369 2.41469L102.758 0.510384L78.4577 8.31039L79.0689 10.2147ZM103.369 2.41469L101.604 3.35587C103.182 6.31403 104.965 9.92937 106.956 14.2082L108.769 13.3647L110.582 12.5212C108.573 8.20001 106.756 4.51536 105.134 1.47351L103.369 2.41469ZM108.769 13.3647L106.98 14.2591C109.058 18.414 111.089 22.8719 113.073 27.6339L114.919 26.8647L116.765 26.0955C114.749 21.2575 112.68 16.7154 110.558 12.4703L108.769 13.3647ZM114.919 26.8647L113.093 27.6806C115.188 32.3687 117.182 36.956 119.076 41.4426L120.919 40.6647L122.761 39.8867C120.856 35.3734 118.85 30.7607 116.745 26.0488L114.919 26.8647ZM120.919 40.6647L119.076 41.4426C120.97 45.9282 122.561 49.8561 123.851 53.229L125.719 52.5147L127.587 51.8004C126.277 48.3733 124.668 44.4012 122.761 39.8867L120.919 40.6647ZM125.719 52.5147L123.846 53.2169C125.035 56.3869 126.377 60.2123 127.872 64.6972L129.769 64.0647L131.666 63.4322C130.161 58.9171 128.803 55.0425 127.592 51.8125L125.719 52.5147ZM129.769 64.0647L127.889 64.7482C129.481 69.1255 131.074 73.7544 132.668 78.6355L134.569 78.0147L136.47 77.3939C134.864 72.4749 133.257 67.8039 131.649 63.3812L129.769 64.0647ZM134.569 78.0147L132.668 78.6355C134.261 83.516 135.755 88.3457 137.149 93.1247L139.069 92.5647L140.989 92.0047C139.583 87.1837 138.077 82.3134 136.47 77.3939L134.569 78.0147ZM139.069 92.5647L137.164 93.1728C138.654 97.8438 139.893 102.106 140.882 105.961L142.819 105.465L144.756 104.968C143.745 101.023 142.484 96.6856 140.974 91.9566L139.069 92.5647ZM142.819 105.465L142.199 103.563L115.049 112.413L115.669 114.315L116.289 116.216L143.439 107.366L142.819 105.465ZM115.669 114.315L117.623 113.887C116.217 107.462 114.711 101.185 113.104 95.0573L111.169 95.5647L109.234 96.0721C110.827 102.145 112.321 108.368 113.715 114.742L115.669 114.315ZM111.169 95.5647L113.113 95.0944C111.606 88.8651 109.998 82.8343 108.288 77.0022L106.369 77.5647L104.45 78.1272C106.14 83.8951 107.732 89.8642 109.225 96.035L111.169 95.5647ZM106.369 77.5647L108.291 77.011C106.578 71.0665 104.713 65.3694 102.694 59.9201L100.819 60.6147L98.9435 61.3093C100.925 66.66 102.76 72.2629 104.447 78.1184L106.369 77.5647Z" fill="currentColor" mask="url(#kanji-hachi-mask)"/>
</svg>