<svg width="100%" viewBox="0 0 155 147" fill="none" xmlns="http://www.w3.org/2000/svg">
<mask id="kanji-tai-mask" maskUnits="userSpaceOnUse" x="-0.0166016" y="-0.860596" width="155" height="148" fill="black">
<rect fill="white" x="-0.0166016" y="-0.860596" width="155" height="148"/>
<path d="M32.7334 2.4894L53.2834 8.7894C50.3834 17.2894 46.8334 25.8894 42.6334 34.5894C38.5334 43.2894 34.0334 51.5894 29.1334 59.4894C24.3334 67.2894 19.3334 74.0894 14.1334 79.8894C13.5334 78.0894 12.5334 75.7394 11.1334 72.8394C9.7334 69.9394 8.2834 67.0394 6.7834 64.1394C5.2834 61.1394 3.8834 58.7394 2.5834 56.9394C6.6834 52.5394 10.5834 47.4394 14.2834 41.6394C18.0834 35.7394 21.5334 29.4394 24.6334 22.7394C27.8334 16.0394 30.5334 9.2894 32.7334 2.4894ZM21.3334 45.5394L42.0334 24.8394V24.9894V144.239H21.3334V45.5394ZM85.6834 2.7894H106.983V143.189H85.6834V2.7894ZM49.9834 26.6394H146.583V47.3394H49.9834V26.6394ZM68.7334 101.189H124.833V120.539H68.7334V101.189ZM113.883 38.4894C116.383 46.6894 119.583 54.9894 123.483 63.3894C127.383 71.7894 131.683 79.6894 136.383 87.0894C141.183 94.3894 146.183 100.689 151.383 105.989C148.883 107.889 146.033 110.489 142.833 113.789C139.633 116.989 137.083 120.039 135.183 122.939C129.983 116.539 125.083 109.039 120.483 100.439C115.883 91.7394 111.733 82.4894 108.033 72.6894C104.433 62.7894 101.283 52.8394 98.5834 42.8394L113.883 38.4894ZM79.6834 36.6894L95.2834 40.8894C92.5834 51.4894 89.3334 61.8894 85.5334 72.0894C81.7334 82.2894 77.3834 91.7894 72.4834 100.589C67.6834 109.389 62.3334 116.989 56.4334 123.389C55.2334 121.689 53.6834 119.789 51.7834 117.689C49.9834 115.589 48.0834 113.589 46.0834 111.689C44.1834 109.689 42.4334 108.089 40.8334 106.889C46.5334 101.589 51.8334 95.1394 56.7334 87.5394C61.7334 79.9394 66.1834 71.7394 70.0834 62.9394C74.0834 54.1394 77.2834 45.3894 79.6834 36.6894Z"/>
</mask>
<path d="M32.7334 2.4894L33.3196 0.57724L31.4367 1.52588e-05L30.8305 1.87376L32.7334 2.4894ZM53.2834 8.7894L55.1763 9.4352L55.8426 7.4821L53.8696 6.87724L53.2834 8.7894ZM42.6334 34.5894L40.8323 33.7199L40.8282 33.7283L40.8242 33.7368L42.6334 34.5894ZM29.1334 59.4894L27.4338 58.4352L27.4301 58.4412L29.1334 59.4894ZM14.1334 79.8894L12.236 80.5219L13.3246 83.7876L15.6225 81.2245L14.1334 79.8894ZM11.1334 72.8394L12.9345 71.9699V71.9699L11.1334 72.8394ZM6.7834 64.1394L4.99454 65.0338L5.00067 65.0461L5.00696 65.0582L6.7834 64.1394ZM2.5834 56.9394L1.12018 55.576L-9.36985e-05 56.7782L0.96204 58.1104L2.5834 56.9394ZM14.2834 41.6394L12.602 40.5564L12.5973 40.5638L14.2834 41.6394ZM24.6334 22.7394L22.8287 21.8774L22.8234 21.8885L22.8183 21.8996L24.6334 22.7394ZM21.3334 45.5394L19.9192 44.1252L19.3334 44.711V45.5394H21.3334ZM42.0334 24.8394H44.0334V20.011L40.6192 23.4252L42.0334 24.8394ZM42.0334 144.239V146.239H44.0334V144.239H42.0334ZM21.3334 144.239H19.3334V146.239H21.3334V144.239ZM85.6834 2.7894V0.789398H83.6834V2.7894H85.6834ZM106.983 2.7894H108.983V0.789398H106.983V2.7894ZM106.983 143.189V145.189H108.983V143.189H106.983ZM85.6834 143.189H83.6834V145.189H85.6834V143.189ZM49.9834 26.6394V24.6394H47.9834V26.6394H49.9834ZM146.583 26.6394H148.583V24.6394H146.583V26.6394ZM146.583 47.3394V49.3394H148.583V47.3394H146.583ZM49.9834 47.3394H47.9834V49.3394H49.9834V47.3394ZM68.7334 101.189V99.1894H66.7334V101.189H68.7334ZM124.833 101.189H126.833V99.1894H124.833V101.189ZM124.833 120.539V122.539H126.833V120.539H124.833ZM68.7334 120.539H66.7334V122.539H68.7334V120.539ZM113.883 38.4894L115.796 37.9062L115.224 36.0289L113.336 36.5656L113.883 38.4894ZM123.483 63.3894L125.297 62.5472V62.5472L123.483 63.3894ZM136.383 87.0894L134.695 88.1617L134.704 88.175L134.712 88.1882L136.383 87.0894ZM151.383 105.989L152.594 107.582L154.4 106.209L152.811 104.589L151.383 105.989ZM142.833 113.789L144.248 115.204L144.258 115.193L144.269 115.182L142.833 113.789ZM135.183 122.939L133.631 124.201L135.357 126.324L136.856 124.035L135.183 122.939ZM120.483 100.439L118.715 101.374L118.72 101.383L120.483 100.439ZM108.033 72.6894L106.154 73.3729L106.158 73.3844L106.162 73.3958L108.033 72.6894ZM98.5834 42.8394L98.0365 40.9156L96.1381 41.4554L96.6525 43.3607L98.5834 42.8394ZM79.6834 36.6894L80.2033 34.7582L78.284 34.2414L77.7554 36.1575L79.6834 36.6894ZM95.2834 40.8894L97.2215 41.3831L97.7085 39.4711L95.8034 38.9582L95.2834 40.8894ZM72.4834 100.589L70.736 99.6164L70.7318 99.624L70.7276 99.6317L72.4834 100.589ZM56.4334 123.389L54.7995 124.543L56.2266 126.564L57.9039 124.745L56.4334 123.389ZM51.7834 117.689L50.2649 118.991L50.2823 119.011L50.3003 119.031L51.7834 117.689ZM46.0834 111.689L44.6334 113.067L44.6687 113.104L44.7059 113.139L46.0834 111.689ZM40.8334 106.889L39.4715 105.425L37.7194 107.054L39.6334 108.489L40.8334 106.889ZM56.7334 87.5394L55.0626 86.4402L55.0575 86.4479L55.0525 86.4557L56.7334 87.5394ZM70.0834 62.9394L68.2627 62.1118L68.2588 62.1204L68.2549 62.1291L70.0834 62.9394ZM32.7334 2.4894L32.1472 4.40157L52.6972 10.7016L53.2834 8.7894L53.8696 6.87724L33.3196 0.57724L32.7334 2.4894ZM53.2834 8.7894L51.3905 8.1436C48.5185 16.5618 44.9998 25.0871 40.8323 33.7199L42.6334 34.5894L44.4345 35.4589C48.667 26.6917 52.2483 18.017 55.1763 9.4352L53.2834 8.7894ZM42.6334 34.5894L40.8242 33.7368C36.7557 42.3699 32.2921 50.6025 27.4338 58.4352L29.1334 59.4894L30.833 60.5436C35.7747 52.5763 40.3111 44.2089 44.4426 35.442L42.6334 34.5894ZM29.1334 59.4894L27.4301 58.4412C22.6822 66.1566 17.752 72.8572 12.6443 78.5543L14.1334 79.8894L15.6225 81.2245C20.9148 75.3216 25.9846 68.4222 30.8367 60.5376L29.1334 59.4894ZM14.1334 79.8894L16.0308 79.2569C15.3916 77.3394 14.3499 74.9018 12.9345 71.9699L11.1334 72.8394L9.3323 73.7089C10.7169 76.577 11.6752 78.8394 12.236 80.5219L14.1334 79.8894ZM11.1334 72.8394L12.9345 71.9699C11.5264 69.0531 10.0682 66.1367 8.55983 63.2206L6.7834 64.1394L5.00696 65.0582C6.49863 67.9421 7.9404 70.8257 9.3323 73.7089L11.1334 72.8394ZM6.7834 64.1394L8.57225 63.245C7.04571 60.1919 5.59117 57.6881 4.20476 55.7684L2.5834 56.9394L0.96204 58.1104C2.17563 59.7907 3.52108 62.0869 4.99454 65.0338L6.7834 64.1394ZM2.5834 56.9394L4.04661 58.3028C8.24034 53.8023 12.2133 48.6032 15.9695 42.715L14.2834 41.6394L12.5973 40.5638C8.95354 46.2756 5.12646 51.2765 1.12018 55.576L2.5834 56.9394ZM14.2834 41.6394L15.9648 42.7224C19.8175 36.7406 23.3116 30.3589 26.4485 23.5792L24.6334 22.7394L22.8183 21.8996C19.7552 28.5199 16.3493 34.7382 12.602 40.5564L14.2834 41.6394ZM24.6334 22.7394L26.4381 23.6014C29.6748 16.8246 32.408 9.99242 34.6363 3.10504L32.7334 2.4894L30.8305 1.87376C28.6588 8.58638 25.992 15.2542 22.8287 21.8774L24.6334 22.7394ZM21.3334 45.5394L22.7476 46.9536L43.4476 26.2536L42.0334 24.8394L40.6192 23.4252L19.9192 44.1252L21.3334 45.5394ZM42.0334 24.8394H40.0334V24.9894H42.0334H44.0334V24.8394H42.0334ZM42.0334 24.9894H40.0334V144.239H42.0334H44.0334V24.9894H42.0334ZM42.0334 144.239V142.239H21.3334V144.239V146.239H42.0334V144.239ZM21.3334 144.239H23.3334V45.5394H21.3334H19.3334V144.239H21.3334ZM85.6834 2.7894V4.7894H106.983V2.7894V0.789398H85.6834V2.7894ZM106.983 2.7894H104.983V143.189H106.983H108.983V2.7894H106.983ZM106.983 143.189V141.189H85.6834V143.189V145.189H106.983V143.189ZM85.6834 143.189H87.6834V2.7894H85.6834H83.6834V143.189H85.6834ZM49.9834 26.6394V28.6394H146.583V26.6394V24.6394H49.9834V26.6394ZM146.583 26.6394H144.583V47.3394H146.583H148.583V26.6394H146.583ZM146.583 47.3394V45.3394H49.9834V47.3394V49.3394H146.583V47.3394ZM49.9834 47.3394H51.9834V26.6394H49.9834H47.9834V47.3394H49.9834ZM68.7334 101.189V103.189H124.833V101.189V99.1894H68.7334V101.189ZM124.833 101.189H122.833V120.539H124.833H126.833V101.189H124.833ZM124.833 120.539V118.539H68.7334V120.539V122.539H124.833V120.539ZM68.7334 120.539H70.7334V101.189H68.7334H66.7334V120.539H68.7334ZM113.883 38.4894L111.97 39.0727C114.499 47.3679 117.733 55.7543 121.669 64.2316L123.483 63.3894L125.297 62.5472C121.433 54.2245 118.267 46.0109 115.796 37.9062L113.883 38.4894ZM123.483 63.3894L121.669 64.2316C125.604 72.7065 129.946 80.6838 134.695 88.1617L136.383 87.0894L138.072 86.0171C133.421 78.695 129.163 70.8723 125.297 62.5472L123.483 63.3894ZM136.383 87.0894L134.712 88.1882C139.571 95.5781 144.651 101.983 149.956 107.39L151.383 105.989L152.811 104.589C147.716 99.3957 142.795 93.2007 138.055 85.9906L136.383 87.0894ZM151.383 105.989L150.173 104.397C147.566 106.379 144.639 109.055 141.398 112.397L142.833 113.789L144.269 115.182C147.428 111.924 150.201 109.4 152.594 107.582L151.383 105.989ZM142.833 113.789L141.419 112.375C138.15 115.645 135.504 118.8 133.51 121.843L135.183 122.939L136.856 124.035C138.663 121.279 141.117 118.334 144.248 115.204L142.833 113.789ZM135.183 122.939L136.736 121.678C131.629 115.393 126.797 108.003 122.247 99.4961L120.483 100.439L118.72 101.383C123.369 110.075 128.338 117.686 133.631 124.201L135.183 122.939ZM120.483 100.439L122.251 99.5046C117.693 90.883 113.577 81.7097 109.904 71.983L108.033 72.6894L106.162 73.3958C109.89 83.2691 114.074 92.5958 118.715 101.374L120.483 100.439ZM108.033 72.6894L109.913 72.0059C106.332 62.1583 103.199 52.2624 100.514 42.3181L98.5834 42.8394L96.6525 43.3607C99.3676 53.4164 102.535 63.4205 106.154 73.3729L108.033 72.6894ZM98.5834 42.8394L99.1304 44.7632L114.43 40.4132L113.883 38.4894L113.336 36.5656L98.0365 40.9156L98.5834 42.8394ZM79.6834 36.6894L79.1635 38.6206L94.7635 42.8206L95.2834 40.8894L95.8034 38.9582L80.2033 34.7582L79.6834 36.6894ZM95.2834 40.8894L93.3453 40.3957C90.6628 50.9268 87.4342 61.2585 83.6592 71.3912L85.5334 72.0894L87.4076 72.7876C91.2327 62.5203 94.504 52.052 97.2215 41.3831L95.2834 40.8894ZM85.5334 72.0894L83.6592 71.3912C79.8917 81.504 75.5831 90.9114 70.736 99.6164L72.4834 100.589L74.2308 101.562C79.1837 92.6674 83.5751 83.0748 87.4076 72.7876L85.5334 72.0894ZM72.4834 100.589L70.7276 99.6317C65.9945 108.309 60.7366 115.771 54.9629 122.034L56.4334 123.389L57.9039 124.745C63.9302 118.208 69.3723 110.47 74.2392 101.547L72.4834 100.589ZM56.4334 123.389L58.0673 122.236C56.8077 120.452 55.2027 118.488 53.2665 116.348L51.7834 117.689L50.3003 119.031C52.1641 121.091 53.6591 122.927 54.7995 124.543L56.4334 123.389ZM51.7834 117.689L53.3019 116.388C51.4576 114.236 49.5105 112.187 47.4609 110.239L46.0834 111.689L44.7059 113.139C46.6563 114.992 48.5092 116.943 50.2649 118.991L51.7834 117.689ZM46.0834 111.689L47.5334 110.312C45.5831 108.259 43.7492 106.576 42.0334 105.289L40.8334 106.889L39.6334 108.489C41.1176 109.603 42.7837 111.12 44.6334 113.067L46.0834 111.689ZM40.8334 106.889L42.1953 108.354C48.0348 102.924 53.4384 96.3409 58.4143 88.6232L56.7334 87.5394L55.0525 86.4557C50.2284 93.9379 45.032 100.254 39.4715 105.425L40.8334 106.889ZM56.7334 87.5394L58.4042 88.6386C63.468 80.9417 67.9699 72.6444 71.9119 63.7497L70.0834 62.9394L68.2549 62.1291C64.3969 70.8344 59.9988 78.9371 55.0626 86.4402L56.7334 87.5394ZM70.0834 62.9394L71.9041 63.767C75.9445 54.8781 79.1816 46.0294 81.6114 37.2213L79.6834 36.6894L77.7554 36.1575C75.3852 44.7494 72.2223 53.4007 68.2627 62.1118L70.0834 62.9394Z" fill="currentColor" mask="url(#kanji-tai-mask)"/>
</svg>