<svg width="310" height="328" viewBox="0 0 310 328" fill="none" xmlns="http://www.w3.org/2000/svg">
<path d="M309.689 240.691C309.689 253.905 307.329 265.861 302.61 276.558C298.205 287.256 291.755 296.537 283.26 304.403C274.765 311.954 264.382 317.775 252.112 321.865C240.156 325.955 226.627 328 211.525 328C198.625 328 185.725 326.584 172.825 323.752C160.24 321.235 148.756 317.46 138.374 312.426C128.306 307.392 119.968 301.414 113.361 294.492C107.068 287.256 103.922 279.233 103.922 270.423V219.925H112.417C117.766 251.703 128.148 274.513 143.565 288.357C159.296 302.2 180.534 309.122 207.277 309.122C215.458 309.122 223.166 308.178 230.402 306.291C237.954 304.088 244.561 300.942 250.224 296.852C255.887 292.762 260.449 287.728 263.91 281.75C267.371 275.772 269.102 268.85 269.102 260.984C269.102 247.14 264.697 235.342 255.887 225.588C247.392 215.835 234.493 205.924 217.188 195.856L159.139 161.404C139.003 149.448 124.687 137.335 116.192 125.065C108.012 112.794 103.922 97.8494 103.922 80.2302C103.922 67.9597 106.124 56.9477 110.529 47.1943C114.934 37.4408 121.069 29.1031 128.935 22.1813C137.115 14.9448 146.711 9.43884 157.723 5.66332C169.05 1.88777 181.635 0 195.479 0C207.12 0 218.919 1.25852 230.874 3.77555C243.145 6.29256 254.157 10.0681 263.91 15.1022C273.664 19.8216 281.687 25.7995 287.979 33.036C294.272 39.9578 297.418 47.8235 297.418 56.6331V107.131H288.923C283.575 75.3535 273.349 52.7002 258.247 39.1712C243.145 25.6422 222.222 18.8777 195.479 18.8777C188.557 18.8777 181.792 19.9789 175.185 22.1813C168.578 24.3837 162.757 27.53 157.723 31.6202C152.689 35.7103 148.599 40.7443 145.453 46.7223C142.307 52.7002 140.733 59.3074 140.733 66.5439C140.733 73.4657 141.835 79.6009 144.037 84.9496C146.239 90.2983 149.543 95.3324 153.948 100.052C158.353 104.771 163.859 109.491 170.466 114.21C177.073 118.615 184.624 123.334 193.119 128.368L251.168 162.82C261.236 168.798 269.888 174.619 277.125 180.282C284.676 185.631 290.811 191.451 295.531 197.744C300.25 203.722 303.711 210.172 305.913 217.094C308.43 224.015 309.689 231.881 309.689 240.691Z" fill="#CE4127"/>
<path d="M0 8.49512H42.4748V263.344C42.4748 277.502 44.3626 288.986 48.1381 297.796C52.2283 306.291 61.3525 310.538 75.5108 310.538H84.9497V319.977H42.4748C34.2945 319.977 27.3727 319.348 21.7094 318.089C16.3607 316.516 11.9559 313.685 8.49497 309.594C5.34868 305.19 3.14628 299.369 1.88777 292.132C0.629256 284.896 0 275.3 0 263.344V8.49512Z" fill="#CE4127"/>
</svg>
